<?xml version="1.0" encoding="utf-8" ?>
<svg xmlns="http://www.w3.org/2000/svg" xmlns:xlink="http://www.w3.org/1999/xlink" width="1024" height="1024">
	<path transform="scale(2 2)" d="M318.568 129.596C328.678 118.855 341.006 108.093 351.692 97.6124L372.373 77.4143C379.014 71.0166 383.831 65.2801 393.538 64.0916C402.61 63.475 411.984 67.57 415.719 76.3721C423.059 93.6657 419.124 172.02 416.825 190.96C414.94 206.48 409.793 217.878 415.098 232.026C423.978 255.708 428.236 284.702 427.969 309.748C427.911 315.173 428.93 323.401 422.603 325.767C416.41 328.082 409.86 324.889 410.045 317.845C410.173 312.974 410.813 308.136 410.752 303.251C410.411 275.948 403.669 252.597 394.906 227.283C380.322 185.15 345.387 152.682 302.32 141.646C271.324 133.704 229.299 134.544 199.264 145.05C163.607 157.524 138.603 180.857 122.263 214.678C110.257 238.89 100.26 280.39 101.348 307.751C101.5 311.555 102.208 315.66 101.835 319.444C101.168 326.213 91.8982 328.33 87.3185 324.059C83.3829 320.389 84.111 301.879 84.3291 296.824C85.0547 280.006 90.2917 250.644 95.921 235.541C102.228 218.62 100.603 225.221 97.6234 207.095C91.4942 169.804 89.9204 131.975 93.4662 94.3342C94.8717 79.4133 97.0052 64.7285 116.762 64.207C128.006 63.9103 132.092 69.5656 139.449 76.7554L155.451 92.4108C168.069 104.972 180.889 117.322 193.779 129.596C230.88 114.769 280.378 117.733 318.568 129.596ZM394.335 80.7717C389.983 82.8277 376.057 97.6637 371.754 101.839L345.93 127.101C342.707 130.291 339.357 133.301 336.198 136.564C350.289 143.38 365.444 154.219 376.319 165.447C385.179 174.71 392.946 185.188 399.169 196.399C404.823 168.065 404.471 119.943 401.027 92.3756C400.444 87.7074 401.557 79.1739 394.335 80.7717ZM115.864 80.7717C108.814 83.6848 110.383 91.8783 109.806 98.766C107.07 131.44 108.29 163.941 112.767 196.399C119.415 184.59 127.722 173.927 137.188 164.258C149.419 151.985 161.153 144.403 176.445 136.564C172.121 131.847 167.409 127.485 162.81 123.039L129.624 90.2916C125.831 86.5565 121.709 80.4762 115.864 80.7717Z"/>
	<path transform="scale(2 2)" d="M188.86 268.152C158.637 270.153 153.722 223.601 186.133 220.85C216.15 218.809 222.265 265.03 188.86 268.152Z"/>
	<path transform="scale(2 2)" d="M327.195 268.152C292.61 268 292.739 225.364 320.831 220.85C339.489 218.886 352.858 236.857 345.392 253.928C341.783 262.181 335.05 265.129 327.195 268.152Z"/>
	<path transform="scale(2 2)" d="M247.791 296.11C245.447 293.226 228.262 277.398 236.223 276.231C241.623 275.703 275.165 275.939 276.448 276.75C280.278 279.171 266.495 292.814 264.269 296.11L264.269 316.578C269.203 319.05 273.274 322.628 278.56 324.544C310.308 336.052 316.791 304.047 328.356 308.831C345.824 316.057 318.115 336.388 309.515 339.713C296.157 344.878 281.551 344.009 268.599 338.252C264.32 336.223 260.281 333.983 256.561 331.03C232.587 346.815 200.533 348.637 181.655 324.186C178.349 319.904 176.712 313.787 181.898 310.159C189.447 304.878 194.377 314.747 199.338 318.581C215.34 330.951 231.861 327.427 247.791 316.578C247.784 309.757 247.885 302.93 247.791 296.11Z"/>
	<path transform="scale(2 2)" d="M408.21 364.43C383.825 401.166 341.325 424.658 298.75 433.562C228.696 448.213 147.474 425.212 104.768 365.497C100.403 359.392 92.4554 346.393 105.35 344.336C113.768 344.563 115.363 351.792 119.699 357.675C182.235 442.533 331.417 441.631 393.92 356.749C395.821 354.167 397.225 351.02 399.254 348.597C403.343 343.712 421.19 344.272 408.21 364.43Z"/>
</svg>
