<?xml version="1.0" encoding="utf-8" ?>
<svg xmlns="http://www.w3.org/2000/svg" xmlns:xlink="http://www.w3.org/1999/xlink" width="1024" height="1024">
	<path transform="scale(2 2)" d="M233.345 115.727C202.503 114.619 222.827 93.721 232.539 80.1915C238.478 71.9197 245.616 56.3727 255.768 55.3391C264.463 55.493 274.485 73.7959 279.833 81.141C285.177 88.4821 301.578 103.736 292.509 112.502C288.817 116.07 283.057 115.737 278.302 115.727C284.614 123.103 291.639 130.008 298.187 137.192L347.603 191.98C352.641 197.531 363.279 206.483 355.525 214.376C351.454 218.521 345.302 217.382 340.027 217.382L323.498 217.366C340.436 235.171 356.834 253.746 372.965 272.275C379.215 279.453 396.418 291.64 387.352 301.66C382.666 306.84 360.792 304.399 353.233 304.757C357.883 311.505 370.312 323.689 376.321 330.492C386.523 342.043 397.01 353.448 407.462 364.779C412.447 370.184 425.214 380.381 416.498 388.111C411.319 392.703 401.378 390.874 395.064 390.867L317.434 390.868C309.764 390.87 301.984 391.191 294.33 390.873L294.334 423.819C294.352 445.533 295.312 447.561 274.24 447.516L255.768 447.499L237.987 447.53C216.463 447.593 217.763 444.37 217.762 422.553L217.776 390.873L115.403 390.876C107.721 390.873 92.3606 392.869 92.5274 381.02C92.6047 375.529 99.2745 370.678 102.611 366.957L146.675 318.265C150.698 313.797 154.505 308.882 158.88 304.757C152.557 304.991 129.604 306.003 125.575 302.719C116.366 295.215 125.396 286.989 130.614 281.29L168.355 240.04C175.18 232.533 182.236 225.186 188.705 217.366C183.862 218.139 178.656 217.298 173.761 217.332C168.139 217.371 162.061 219.265 157.318 215.211C148.548 207.717 158.136 199.106 163.042 193.639L206.65 145.053C215.558 135.323 224.797 125.775 233.345 115.727ZM255.768 80.146C252.012 84.2708 246.889 91.963 244.029 96.9922L257.375 96.9922C260.972 97.0089 264.628 97.1639 268.218 96.9922C266.695 94.7927 256.91 81.1178 255.768 80.146ZM255.768 118.15C249.469 126.647 241.923 134.024 234.842 141.853L202.731 177.568C196.677 184.275 190.273 190.847 184.509 197.794L201.325 197.77C206.169 197.765 213.463 196.701 217.212 200.618C224.688 208.429 215.796 215.931 210.868 221.299L151.332 286.242C158.525 286.627 176.161 285.085 181.94 286.592C187.512 288.044 190.985 295.998 187.616 300.906C185.738 303.641 183.153 306.094 180.904 308.525L138.955 354.887C133.752 360.699 128.267 366.312 123.316 372.338L257.375 372.338L388.951 372.338C382.801 366.632 377.285 359.879 371.672 353.634L346.294 325.627C338.961 317.457 329.359 308.448 322.744 300.067C318.73 294.981 323.599 287.092 329.385 286.24C332.52 285.778 335.97 286.217 339.147 286.231L360.179 286.242C355.173 279.793 349.531 273.798 344.1 267.709L308.118 227.988C302.73 221.921 284.514 207.953 296.064 199.743C299.959 196.974 305.635 197.758 310.118 197.765L327.11 197.794C322.018 191.853 256.957 118.749 255.768 118.15ZM236.169 390.873L236.169 428.263L275.764 428.263L275.764 390.873L236.169 390.873Z"/>
	<path transform="scale(2 2)" d="M240.581 269.096C235.161 269.12 225.182 270.279 221.091 266.546C217.181 262.978 216.901 256.338 220.725 252.599C223.975 249.42 229.171 250.118 233.345 250.097C238.656 250.06 247.555 248.848 251.546 252.747C260.078 261.083 252.092 269.398 240.581 269.096Z"/>
	<path transform="scale(2 2)" d="M285.313 305.777C280.096 305.762 268.693 306.417 264.103 305.425C255.603 303.587 252.928 288.184 268.218 286.242C274.465 286.216 286.608 285.052 291.409 288.91C298.726 294.79 293.866 305.275 285.313 305.777Z"/>
</svg>
