<?xml version="1.0" encoding="utf-8" ?>
<svg xmlns="http://www.w3.org/2000/svg" xmlns:xlink="http://www.w3.org/1999/xlink" width="1024" height="1024">
	<path transform="scale(2 2)" d="M237.204 104.635C234.41 105.047 230.918 104.157 229.487 101.517C227.734 98.2818 228.492 68.0716 229.325 65.3198C230.01 63.0536 231.822 61.8438 233.799 60.7921C236.725 60.5185 240.042 61.1093 241.366 64.1337C242.553 66.8435 242.6 98.2861 241.523 100.89C240.692 102.902 239.131 103.817 237.204 104.635Z"/>
	<path transform="scale(2 2)" d="M191.344 128.028C180.498 128.432 183.904 109.487 183.891 102.312C183.88 96.2082 181.665 87.2927 189.417 85.3065C192.05 85.2072 195.197 85.764 196.394 88.478C197.494 90.9706 197.215 117.105 196.878 121.233C196.583 124.842 194.924 126.964 191.344 128.028Z"/>
	<path transform="scale(2 2)" d="M280.216 128.028C277.191 128.046 274.206 127.023 273.299 123.845C272.166 119.872 272.311 96.4744 272.938 91.5014C273.369 88.0785 275.052 86.2202 278.43 85.3065C281.401 85.214 284.235 86.8081 285.249 89.7244C286.161 92.3483 285.966 117.615 285.637 121.74C285.34 125.46 283.899 127.019 280.216 128.028Z"/>
	<path transform="scale(2 2)" d="M144.404 146.674C141.556 146.874 138.067 145.181 137.003 142.442C135.782 139.297 135.995 114.433 136.418 110.023C136.731 106.763 138.15 104.877 141.327 103.808C145.644 103.555 148.895 105.51 149.32 110.24C149.69 114.369 149.749 138.9 149.011 141.715C148.382 144.115 146.446 145.518 144.404 146.674Z"/>
	<path transform="scale(2 2)" d="M327.148 146.674C324.414 146.948 320.653 145.28 319.838 142.459C318.814 138.911 319.04 116 319.446 111.448C319.803 107.457 320.817 105.604 324.92 104.635C328.163 104.057 330.685 105.495 332.076 108.545C333.219 111.049 333.105 140.66 331.922 143.266C331.054 145.178 328.975 145.986 327.148 146.674Z"/>
	<path transform="scale(2 2)" d="M151.604 393.265C121.678 370.796 101.125 326.416 100.31 289.622C100.134 281.68 100.266 273.71 100.267 265.765L100.26 182.291C100.257 175.216 97.3778 156.215 104.509 153.745C108.524 153.086 112.991 153.747 117.064 153.75L349.688 153.738C368.514 153.735 369.315 151.677 369.309 169.135L369.288 186.842C391.484 186.809 409.452 184.056 426.918 201.355C442.359 216.649 442.725 231.292 442.708 250.946L442.696 275.877C442.81 314.084 418.201 330.527 382.297 330.548L361.424 330.54C359.418 340.197 352.917 351.531 347.723 359.673C337.716 375.364 331.762 380.996 318.307 393.265L387.272 393.243C396.496 393.207 401.865 391.175 401.699 403.125C401.819 413.314 400.153 421.821 393.026 429.542C380.425 443.193 366.827 441.006 350.238 441.004L110.165 441.021C106.135 441.033 102.043 441.275 98.0365 440.776C81.1336 438.675 69.9343 423.1 69.2837 406.785C68.7375 393.088 72.3097 393.224 84.8559 393.246L151.604 393.265ZM117.186 167.005L113.552 167.005L113.552 202.171L352.158 202.171L355.941 202.171L355.941 167.005L117.186 167.005ZM369.288 200.286C369.007 204.303 369.315 208.425 369.288 212.457L385.454 212.435C416.225 212.387 418.214 224.064 418.221 252.114L418.202 276.359C418.006 300.161 404.993 305.772 383.565 305.759L367.628 305.739C367.242 309.537 366.678 313.272 365.875 317.006L377.125 317.006C393.1 317.034 405.45 318.611 417.838 306.203C430.691 293.332 429.154 280.582 429.138 263.763L429.143 239.742C429.008 212.89 410.11 200.245 385.554 200.27L369.288 200.286ZM144.404 215.274L113.552 215.274L113.548 262.161C113.547 272.584 113.123 283.186 114.002 293.577C117.901 339.672 138.367 367.418 173.82 393.265L279.816 393.274C297.712 393.287 298.14 392.479 313.121 380.199C331.128 364.558 345.877 340.947 351.822 317.806C356.396 300.007 355.945 281.921 355.945 263.723L355.941 215.274L144.404 215.274ZM369.288 225.747L369.288 292.227L383.745 292.25C390.461 292.268 396.19 293.216 401.699 288.69C402.973 286.757 404.259 284.701 404.673 282.385C405.342 278.633 405.359 237.3 404.687 234.256C402.667 225.114 392.769 225.702 385.633 225.719L369.288 225.747ZM82.6901 406.792C83.6289 425.603 96.7415 427.727 112.335 427.729L348.368 427.726C359.819 427.731 373.266 430.056 382.422 421.672C386.799 417.023 388.363 413.146 388.461 406.792L82.6901 406.792Z"/>
	<path transform="scale(2 2)" d="M134.633 247.341C125.383 248.327 121.813 231.112 132.69 225.747C141.277 226.854 141.836 237.801 139.483 243.526C138.652 245.549 136.528 246.562 134.633 247.341Z"/>
	<path transform="scale(2 2)" d="M134.633 301.232C131.487 301.407 128.333 300.831 127.529 297.291C126.385 292.262 126.561 267.355 127.139 260.924C127.491 256.997 128.518 254.791 132.69 254.058C135.291 254.06 138.455 254.821 139.521 257.524C140.633 260.346 140.478 289.408 140.12 294.138C139.816 298.147 138.738 300.079 134.633 301.232Z"/>
</svg>
