<?xml version="1.0" encoding="utf-8" ?>
<svg xmlns="http://www.w3.org/2000/svg" xmlns:xlink="http://www.w3.org/1999/xlink" width="1024" height="1024">
	<path transform="scale(2 2)" d="M105.67 135.578C100.952 135.567 91.4579 136.187 87.27 135.428C76.9648 133.56 79.9697 122.074 79.9763 114.45L79.9655 100.607C79.9112 93.5213 78.4637 83.3592 88.4341 82.6854C92.7909 81.7118 98.4683 82.684 102.973 82.6914L402.659 82.6847C416.097 82.6822 431.753 77.7768 432.162 94.6655C432.335 101.778 432.21 108.923 432.205 116.039C432.193 131.647 434.3 135.829 416.903 135.614L406.509 135.578L406.509 366.089C415.334 366.112 431 362.574 431.961 374.722C432.54 382.034 432.21 389.55 432.209 396.884C432.208 405.735 435.27 417.972 423.112 418.902L98.3747 418.906C89.1302 418.916 80.0449 421.322 79.9559 408.342L80.0011 387.171C79.9824 362.147 82.837 366.063 105.67 366.089L105.67 135.578ZM94.7808 97.467C94.5528 103.387 94.1868 114.908 94.7808 120.707L416.735 120.707L416.735 97.467L94.7808 97.467ZM120.658 135.578L120.658 173.511L386.55 173.568C388.098 173.579 390.061 173.82 391.563 173.511L391.563 135.578L120.658 135.578ZM127.372 188.567C125.135 188.582 122.896 188.611 120.658 188.567L120.658 366.089L152.281 366.089L152.275 323.995C152.275 313.619 151.884 303.061 152.941 292.73C158.22 241.134 202.337 199.222 254.611 198.865C290.029 198.623 320.141 214.964 340.908 243.028C360.541 271.432 360.066 289.726 360.065 321.477L360.056 366.089L391.563 366.089L391.563 188.567L127.372 188.567ZM251.137 214.009C217.15 217.678 189.462 234.618 175.375 267.084C166.227 288.167 167.244 302.66 167.242 324.999L167.25 366.089L220.097 366.089C206.911 350.221 200.201 334.311 207.073 313.124C210.258 303.306 223.254 272.016 234.025 293.04C242.832 274.042 247.837 268.583 259.951 253.036C262.018 250.461 264.175 247.584 267.707 247.14C276.055 246.089 275.935 255.238 277.425 260.891C281.025 274.551 292.215 290.899 299.347 303.193C313.671 327.884 310.423 344.027 292.179 366.089L344.801 366.089L344.805 321.542C344.811 311.193 345.37 300.523 344.182 290.226C339.001 245.319 295.672 211.358 251.137 214.009ZM264.929 270.694C253.947 284.209 242.506 305.402 241.91 323.396L241.889 323.974C236.095 318.502 231.08 312.298 226.333 305.916C215.922 326.241 216.43 346.058 236.313 359.876C264.527 378.317 298.277 352.266 292.285 323.848C289.857 312.332 272.567 289.375 266.873 275.277C266.364 274.015 265.801 271.619 264.929 270.694ZM213.123 381.33L94.7808 381.33L94.7808 403.744L298.625 403.744L416.735 403.744L416.735 381.33L213.123 381.33Z"/>
</svg>
