<?xml version="1.0" encoding="utf-8" ?>
<svg xmlns="http://www.w3.org/2000/svg" xmlns:xlink="http://www.w3.org/1999/xlink" width="1024" height="1024">
	<path transform="scale(2 2)" d="M259.726 132.185L259.737 86.9798C259.735 79.6774 256.951 65.2617 263.581 61.5248C270.906 60.5546 358.889 106.168 371.511 112.496L388.534 121.046C405.411 129.437 402.484 125.317 402.487 146.376L402.485 428.338L444.405 428.338L444.405 440.346L188.625 440.346L67.5505 440.346L67.5505 428.338L109.468 428.338L109.472 376.48C109.461 349.68 108.241 323.425 108.24 296.511C108.239 278.892 107.774 261.259 108.923 243.665C109.728 231.336 109.198 219.036 109.857 206.715C110.607 192.677 110.469 179.584 110.469 165.521L110.461 90.9803C110.46 85.2282 108.377 74.907 116.482 74.3619C121.278 74.0393 126.311 74.3743 131.126 74.3819L187.483 74.3813C192.632 74.3781 205.454 71.9746 206.472 79.3302C207.11 83.9395 206.588 90.7688 206.587 95.6177L206.595 132.185L259.726 132.185ZM271.309 76.0371C270.869 79.1073 271.273 82.6326 271.294 85.7633L271.309 428.338L296.355 428.338L296.357 351.347C296.36 338.264 294.383 336.307 307.016 336.33L355.773 336.34C359.56 336.36 362.082 336.458 364.195 339.81L364.195 361.875L364.195 428.338L390.279 428.338L390.279 134.633L311.033 95.0005C297.878 88.5265 284.376 82.6683 271.309 76.0371ZM191.686 85.7385L121.784 85.7385L121.784 132.185L126.625 132.185L172.05 132.179C179.721 132.178 187.432 131.999 195.098 132.185L195.098 85.7385L191.686 85.7385ZM121.784 143.741L121.784 428.338L259.726 428.338L259.726 143.741L121.784 143.741ZM308.452 348.006L308.452 428.338L352.217 428.338C352.431 425.427 352.266 422.415 352.251 419.491L352.217 348.006L308.452 348.006Z"/>
	<path transform="scale(2 2)" d="M302.688 184.73C293.875 184.946 293.077 174.363 300.084 173.483C306.046 172.735 313.19 173.241 319.26 173.24L356.873 173.245C358.185 173.166 359.5 173.218 360.814 173.245C365.644 176.064 365.697 183.677 359.338 184.599C355.092 185.215 346.3 184.742 341.664 184.741L302.688 184.73Z"/>
	<path transform="scale(2 2)" d="M147.465 208.232L147.465 179.685L176.734 179.685C176.916 182.891 176.752 186.175 176.749 189.39L176.734 208.232C174.231 208.665 171.07 208.259 168.485 208.255L147.465 208.232Z"/>
	<path transform="scale(2 2)" d="M205.05 208.232L205.05 179.685C214.606 179.368 224.274 179.679 233.842 179.685L233.842 208.232L205.05 208.232Z"/>
	<path transform="scale(2 2)" d="M359.763 238.191L321.377 238.193C314.714 238.2 307.842 238.569 301.207 238.159C294.308 237.733 293.471 228.349 301.041 226.451C307.679 226.404 359.244 225.928 361.678 227.014C367.191 229.475 364.87 236.883 359.763 238.191Z"/>
	<path transform="scale(2 2)" d="M147.465 266.482C147.621 256.765 147.261 247.036 147.465 237.321L176.734 237.321L176.734 266.482L147.465 266.482Z"/>
	<path transform="scale(2 2)" d="M205.05 266.482L205.05 237.321L233.842 237.321L233.842 266.482L205.05 266.482Z"/>
	<path transform="scale(2 2)" d="M359.763 293.512C356.632 293.716 353.368 293.522 350.221 293.52L312.865 293.493C309.305 293.52 305.621 293.757 302.073 293.52C293.95 292.978 293.411 283.283 301.041 282.057L339.459 282.07C344.486 282.071 358.52 280.526 362.497 283.456C366.65 286.515 364.694 292.943 359.763 293.512Z"/>
	<path transform="scale(2 2)" d="M205.05 326.011L205.05 296.078C214.613 296.076 224.295 296.428 233.842 296.078L233.842 326.011C230.852 326.295 227.596 326.034 224.581 326.026L205.05 326.011Z"/>
	<path transform="scale(2 2)" d="M147.465 326.011L147.465 296.078C157.22 296.067 166.98 296.187 176.734 296.078C176.406 299.184 176.711 302.571 176.715 305.712L176.734 326.011C167.019 326.305 157.19 326.037 147.465 326.011Z"/>
	<path transform="scale(2 2)" d="M205.05 382.714L205.05 353.92L233.842 353.92L233.851 372.64C233.867 375.989 234.127 379.374 233.842 382.714L215.533 382.731C212.059 382.748 208.515 382.926 205.05 382.714Z"/>
	<path transform="scale(2 2)" d="M147.465 353.92L167.001 353.937C170.202 353.949 173.559 354.252 176.734 353.92C177.278 355.928 176.756 359.172 176.749 361.34L176.734 382.714L147.465 382.714C147.351 382.582 147.467 356.583 147.465 353.92Z"/>
</svg>
