<?xml version="1.0" encoding="utf-8" ?>
<svg xmlns="http://www.w3.org/2000/svg" xmlns:xlink="http://www.w3.org/1999/xlink" width="1024" height="1024">
	<path transform="scale(2 2)" d="M150.945 70.3727C176.447 68.4847 198.941 86.0456 208.875 108.533C214.127 120.422 217.105 130.508 223.958 142.402C241.268 172.448 267.222 195.216 293.571 217.064L449.88 348.141C454.054 351.638 465.448 357.986 460.686 364.738C456.88 370.136 443.574 373.594 437.176 374.659C409.399 379.283 398.462 368.176 379.348 352.475C366.136 341.622 348.89 326.956 335.144 317.217C329.55 321.513 324.575 326.587 318.954 330.874C305.002 341.515 278.592 356.131 260.495 357.863C257.091 361.307 251.229 372.171 247.834 376.866C245.289 381.334 241.044 387.218 237.932 391.278C243.816 391.755 255.285 389.71 259.585 393.597C262.482 396.216 262.722 401.335 259.979 404.145C256.045 408.174 232.956 406.48 226.468 406.551C223.727 411.134 212.115 430.101 207.872 431.77C201.84 434.143 196.271 427.886 198.251 422.114C199.69 417.919 205.233 411.231 207.677 406.551C197.987 407.149 188.155 405.813 178.486 406.551C174.344 412.252 170.329 418.059 166.258 423.812C163.002 428.413 159.28 436.226 151.884 431.559C143.673 426.378 150.619 418.23 154.44 412.976L183.207 372.748C187.743 366.379 192.526 360.069 196.745 353.488C192.001 351.893 187.207 350.65 182.541 348.801C137.715 331.043 102.895 287.73 98.8915 239.144C97.4848 222.071 99.9506 205.068 104.404 188.617C107.944 175.54 108.714 166.47 98.5156 154.658C93.9582 150.717 72.6114 140.439 66.4401 137.13C43.6936 124.935 47.4891 123.231 66.5936 113.396L94.811 99.0557C105.227 93.6586 104.992 94.3611 113.226 86.3613C123.275 76.5977 137.056 71.1215 150.945 70.3727ZM113.752 244.826C125.269 234.8 126.344 222.986 132.367 216.035C137.068 210.61 146.213 214.998 145.111 222.116C143.198 234.473 127.336 252.38 119.135 262.573C131.791 294.59 151.839 318.57 184.263 332.661C215.145 346.082 245.287 348.975 276.833 337.233C285.466 333.743 293.433 329.879 301.129 324.598C266.757 329.62 224.428 321.809 196.198 300.82C164.68 277.384 137.041 225.007 163.962 189.237C182.886 164.091 209.942 171.773 235.058 182.204C218.9 166.1 208.044 147.561 199.608 126.595C197.938 122.446 196.57 118.164 194.761 114.073C187.494 97.6296 170.912 84.6987 152.389 85.3709C125.74 87.6556 108.422 109.188 110.67 135.598C111.806 148.948 120.74 159.373 122.34 172.315C123.426 181.092 118.052 196.668 116.315 206.175C113.491 221.635 114.921 230.772 113.752 244.826ZM362.782 294.249C355.384 287.27 345.392 281.353 338.653 274.636C323.41 283.521 312.725 283.443 297.308 287.376L296.799 287.345C290.326 286.974 283.85 287.576 277.347 287.098C266.597 286.308 216.866 277.389 218.39 261.353C218.797 257.062 222.359 253.702 226.791 254.488C229.778 255.018 232.898 258.177 235.489 259.764C259.668 274.578 299.54 276.215 325.423 263.672C291.11 235.842 265.95 208.667 222.589 193.382C213.427 190.153 203.234 186.971 193.436 187.25C171.726 190.982 166.523 216.016 169.652 234.584C173.392 256.784 188.841 276.859 206.955 289.618C251.5 320.993 314.247 311.486 362.782 294.249ZM97.0229 115.318C90.1084 118.272 83.534 122.01 76.6632 125.075C78.9698 126.394 81.261 127.759 83.6336 128.956C87.3613 131.037 91.1936 133.238 95.1477 134.855C95.5008 128.392 95.4973 122.537 96.9634 116.117C97.0691 115.654 97.0398 115.841 97.0229 115.318ZM438.379 359.222C432.118 352.928 377.814 307.109 375.347 306.217L374.735 306.298C367.667 308.158 360.789 310.666 353.74 312.621C364.007 320.767 374.514 328.654 384.673 336.928L395.75 346.093C402.918 352.097 409.119 356.633 418.296 359.222C424.709 360.678 431.962 360.866 438.379 359.222ZM189.069 391.278C198.646 391.411 208.232 391.254 217.811 391.278C218.234 391.337 218.976 391.585 219.306 391.305C221.575 389.376 238.947 362.973 240.562 360.028C230.88 360.202 223.062 358.142 214.249 357.906L212.837 357.863C204.568 368.461 197.173 381.466 189.069 391.278Z"/>
	<path transform="scale(2 2)" d="M146.199 112.546C158.636 111.743 163.158 127.345 150.945 131.329C138.043 133.479 133.946 115.187 146.199 112.546Z"/>
</svg>
