<?xml version="1.0" encoding="utf-8" ?>
<svg xmlns="http://www.w3.org/2000/svg" xmlns:xlink="http://www.w3.org/1999/xlink" width="1024" height="1024">
	<path transform="scale(2 2)" d="M118.548 286.684C118.172 204.26 179.728 128.126 260.337 110.904C270.748 108.679 281.269 107.608 291.863 106.739C303.785 106.702 315.336 107.109 327.152 108.945C377.762 116.805 441.955 153.144 442.237 211.293C442.425 250.119 411.967 288.87 371.713 288.815C360.352 288.799 354.822 273.934 364.923 268.49C367.912 266.88 372.042 266.97 375.357 266.471C401.647 262.512 419.86 238.68 419.997 212.543C420.289 156.965 345.222 128.806 299.08 128.743C211.932 128.625 140.651 201.672 140.73 287.83C169.041 287.243 196.908 266.677 210.272 242.667C212.159 239.276 213.699 235.697 215.44 232.231C240.533 182.253 295.375 159.127 347.232 183.208C353.833 186.273 376.225 199.8 378.786 207.244C381.882 216.244 372.827 225.637 363.737 221.279C358.563 218.799 352.957 211.674 346.288 208.098C342.773 208.949 339.456 210.012 336.161 211.506C315.608 221.286 304.364 244.299 305.061 266.5C306.76 320.58 374.135 346.913 412.543 311.837C417.854 306.987 422.022 298.271 430.127 298.279C436.37 298.285 441.048 303.266 440.85 309.479C440.624 316.611 434.062 321.521 429.228 325.976C411.773 342.059 389.075 350.568 365.307 349.545C293.212 346.442 256.028 259.654 305.341 207.214C309.265 203.042 313.754 199.585 317.964 195.727C314.511 195.926 311.074 195.656 307.623 195.621C280.061 195.337 254.318 211.039 239.749 234.232C235.1 241.633 231.927 249.821 227.167 257.207C202.765 295.07 160.708 317.715 115.132 307.707C104.469 305.365 66.3935 290.631 70.574 275.25C74.1143 262.224 85.6691 267.852 93.1254 273.873C100.864 280.122 109.002 283.823 118.548 286.684Z"/>
	<path transform="scale(2 2)" d="M69.7805 373.062L141.556 373.062L442.187 373.062C438.26 397.712 423.439 395.487 404.687 395.485L369.938 395.48L104.123 395.486C87.5022 395.48 70.6911 393.408 69.7805 373.062Z"/>
</svg>
