<?xml version="1.0" encoding="utf-8" ?>
<svg xmlns="http://www.w3.org/2000/svg" xmlns:xlink="http://www.w3.org/1999/xlink" width="1024" height="1024">
	<path transform="scale(2 2)" d="M361.703 184.86C369.429 190.39 384.541 202.811 379.217 213.556C378.038 215.935 376.375 218.054 375.2 220.437C362.343 246.518 399.526 268.504 416.971 247.059C422.556 240.194 423.007 231.843 422.136 223.399C418.991 192.875 402.24 160.436 378.402 140.971C309.206 84.4715 208.3 118.628 185.545 202.623C182.503 213.85 182.227 225.085 180.902 236.563C174.658 290.668 132.881 340.634 76.9517 346.216C71.6264 346.748 65.6863 347.686 61.2636 343.917C54.863 338.463 55.0114 327.565 62.7627 323.326C67.3398 320.823 76.2335 320.982 81.7167 319.895C120.387 312.234 150.918 274.087 155.686 235.73C156.809 226.697 156.902 217.659 158.46 208.647C168.503 150.549 214.012 103.125 271.92 91.2523C280.157 89.5635 288.558 88.9362 296.925 88.2789C358.827 87.7456 414.277 122.622 437.36 181.127C480.19 289.679 372.325 305.383 350.662 248.616C345.894 236.123 347.479 220.932 352.841 208.925C328.713 184.943 292.316 190.152 274.414 218.266C257.881 244.231 269.094 277.501 290.266 297.02C333.218 336.618 383.912 315.045 397.537 323.979C403.168 327.672 405.028 335.857 401.101 341.466C396.118 348.584 386.421 347.216 378.857 347.125C341.526 346.678 315.852 347.518 282.809 323.322C243.826 294.776 227.928 238.818 258.066 198.156C282.893 164.659 328.782 160.305 361.703 184.86Z"/>
	<path transform="scale(2 2)" d="M322.519 391.779C306.251 391.271 300.509 398.209 287.568 405.71C269.929 415.933 244.574 416.683 226.694 407.081C214.24 400.393 208.076 392.421 192.378 392.008C176.105 391.58 171.143 399.157 159.116 405.87C139.92 416.585 113.25 415.943 94.7216 404.255C87.6701 399.807 80.8629 394.317 72.5083 392.564C68.2711 391.675 64.1299 391.69 60.6643 388.718C53.027 382.168 57.3809 368.904 66.9398 367.24C82.4816 364.536 97.8364 377.92 110.193 384.15C121.148 389.673 136.064 389.827 146.702 383.644C162.898 374.231 169.692 367.925 190.539 366.876C220.971 365.206 231.965 388.433 256.001 388.422C270.54 388.415 276.593 382.08 288.312 375.422C307.634 364.445 330.614 363.689 350.323 374.523C361.719 380.788 369.212 388.288 383.277 388.288C406.462 388.287 418.099 366.201 443.108 367.153C454.394 367.582 460.043 382.071 451.318 389.349C447.868 392.226 442.39 391.907 438.235 393.074C427.378 396.123 419.946 403.525 410.024 408.098C390.224 417.226 366.764 414.667 348.611 403.162C339.017 397.082 334.511 393.109 322.519 391.779Z"/>
</svg>
