<?xml version="1.0" encoding="utf-8" ?>
<svg xmlns="http://www.w3.org/2000/svg" xmlns:xlink="http://www.w3.org/1999/xlink" width="1024" height="1024">
	<path transform="scale(2 2)" d="M255.993 148.396C258.686 145.137 261.96 142.286 264.937 139.279L314.42 89.9748C319.393 84.9401 325.983 75.1781 333.293 74.0739C338.764 73.8134 343.306 77.7142 343.873 83.1935C344.554 89.7673 338.899 93.1259 334.64 97.2383C329.579 102.125 324.451 106.965 319.499 111.962L292.863 138.559C287.654 143.813 282.582 149.704 276.906 154.419L385.461 154.411C414.886 154.401 428.93 162.083 429.016 193.79L429.017 357.4C429.044 388.298 425.722 407.379 389.939 407.363L374.847 407.355C374.762 412.52 376.087 420.039 372.326 424.177C368.782 428.076 363.265 427.425 359.706 423.915C355.616 419.881 356.82 412.659 356.843 407.355L154.729 407.355L154.729 410.688C154.762 414.872 155.626 421.574 152.652 424.946C149.42 428.61 143.451 428.717 140.004 425.304C136.478 421.812 137.635 412.117 137.659 407.355L122.259 407.372C102.582 407.383 84.2242 400.846 83.5195 378.178C83.0717 363.771 83.5008 348.854 83.5009 334.393L83.4963 203.331C83.493 196.682 82.8407 188.08 83.7708 181.636C87.2295 157.673 105.239 154.404 124.627 154.41L205.638 154.42C215.793 154.42 226 154.667 236.146 154.419C230.724 150.384 226.02 144.652 221.212 139.878C212.792 131.515 204.095 123.326 195.871 114.777C188.391 107.001 191.97 96.1983 201.812 97.0386C206.892 97.4724 210.07 102.319 213.455 105.654C226.444 118.45 244.376 134.705 255.993 148.396ZM188.86 173.211L121.853 173.199C98.2386 173.183 102.487 184.032 102.504 204.09L102.508 370.996C102.624 386.265 106.629 388.683 120.963 388.684L323.875 388.669L387.839 388.678C415.174 388.7 409.679 375.968 409.677 354.056L409.663 227.478C409.663 214.334 409.969 201.12 409.7 187.984C409.308 168.765 388.89 173.207 375.55 173.207L188.86 173.211Z"/>
	<path transform="scale(2 2)" d="M277.875 368.756L145.46 368.766C136.578 368.765 122.324 371.732 122.079 358.633C121.865 347.148 122.065 335.617 122.063 324.127L122.056 219.116C122.055 212.973 121.598 206.48 122.183 200.384C123.22 189.565 137.962 192.634 145.349 192.635L179.509 192.625L308.407 192.613C322.019 192.608 334.398 189.323 334.717 208.005C334.907 219.161 334.714 230.353 334.713 241.512L334.728 343.114C334.749 368.071 337.52 368.76 309.393 368.767L277.875 368.756ZM140.935 211.569L140.935 349.924L315.427 349.924L315.427 211.569L160.299 211.566C153.852 211.566 147.378 211.409 140.935 211.569Z"/>
	<path transform="scale(2 2)" d="M384.369 232.244C379.433 232.727 366.647 232.602 361.995 232.089C350.286 230.797 349.879 216.646 360.453 213.727C364.703 213.635 382.4 213.218 385.377 214.198C394.379 217.163 394.151 228.125 384.369 232.244Z"/>
	<path transform="scale(2 2)" d="M375.688 290.902C351.364 295.445 344.239 257.996 369.861 252.801C393.634 250.456 400.211 285.024 375.688 290.902Z"/>
	<path transform="scale(2 2)" d="M374.847 348.164C350.12 350.078 345.622 312.646 371.402 309.843C395.434 308.062 399.574 344.773 374.847 348.164Z"/>
</svg>
