<?xml version="1.0" encoding="utf-8" ?>
<svg xmlns="http://www.w3.org/2000/svg" xmlns:xlink="http://www.w3.org/1999/xlink" width="1024" height="1024">
	<path transform="scale(2 2)" d="M255.923 442.786C251.181 443.081 246.367 442.601 241.649 442.129C176.391 435.614 121.189 379.889 114.086 314.884C110.872 285.473 120.085 257.461 132.919 231.497C155.31 186.198 191.577 138.362 222.094 97.6792L239.736 73.8857C244.142 67.8403 247.582 59.4112 255.923 58.5972C264.004 59.0026 268.085 68.7193 272.242 74.4407C299.273 111.645 326.821 146.734 352.165 185.599C377.576 224.565 400.608 262.767 398.237 310.998C396.504 346.265 377.494 381.816 351.55 405.25C327.234 427.214 289.49 444.491 255.923 442.786ZM255.923 87.6643C251.379 93.5202 247.108 99.5915 242.684 105.539L217.95 138.735C184.286 184.323 127.834 257.608 135.003 314.328C142.423 373.042 197.331 424.08 257.353 421.295C263.445 421.708 269.728 420.923 275.732 419.905C330.64 410.597 373.981 362.966 377.557 307.096C380.303 264.19 352.805 223.6 330.154 189.624C315.196 167.188 299.507 145.304 283.149 123.868L263.557 98.0953C262.253 96.3597 257.28 88.605 255.923 87.6643Z"/>
	<path transform="scale(2 2)" d="M257.353 386.764C254.111 387.323 250.539 386.871 247.291 386.524C207.332 382.258 175.968 351.412 169.489 311.804C167.967 302.495 164.41 285.183 177.82 283.068C188.78 282.424 189.212 291.788 189.433 299.667C190.286 330.168 212.448 357.448 242.249 364.214C247.536 365.414 258.641 365.468 262.564 368.535C270.216 374.517 266.697 385.839 257.353 386.764Z"/>
</svg>
