<?xml version="1.0" encoding="utf-8" ?>
<svg xmlns="http://www.w3.org/2000/svg" xmlns:xlink="http://www.w3.org/1999/xlink" width="1024" height="1024">
	<path transform="scale(2 2)" d="M121.605 171.134C127.513 117.728 169.345 82.915 220.91 77.7524C252.647 76.1799 275.767 87.3221 299.552 106.137C311.728 101.506 318.12 98.7184 332.197 98.6732C374.628 98.5371 403.346 133.677 403.251 174.457C461.082 194.411 449.829 289.9 383.96 294.103C373.085 294.796 349.059 295.259 338.092 294.23C328.43 293.324 326.506 278.912 336.265 276.848C339.519 276.159 343.19 276.883 346.509 276.867L368.74 276.86C388.551 276.863 404.281 275.601 416.452 256.672C431.693 232.968 422.494 200.684 396 189.941C378.744 182.944 384.681 190.599 385.712 170.886C387.711 132.669 345.648 105.658 310.032 120.664C306.333 122.223 301.195 126.261 297.592 126.772C294.838 127.162 283.494 115.712 280.025 113.199C227.439 75.2942 151.176 102.493 139.908 166.529C136.752 184.467 143.891 186.548 126.718 187.945C79.0297 191.824 72.571 264.595 122.606 275.73C130.341 277.451 138.759 276.851 146.654 276.849L175.941 276.838C179.932 276.839 186.923 276.215 190.316 278.3C196.757 282.255 194.721 292.243 187.604 293.873C180.55 295.488 139 294.481 130.942 294.088C101.624 292.656 77.364 272.696 71.4723 243.589C64.4557 208.924 87.3724 177.947 121.605 171.134Z"/>
	<path transform="scale(2 2)" d="M231.117 353.395C222.336 353.285 213.544 353.378 204.762 353.4C198.099 353.417 186.09 355.525 184.213 346.519C182.732 339.41 194.766 326.527 198.872 320.755L238.428 266.302C242.848 260.299 257.435 236.254 263.462 235.048C279.965 234.227 273.309 253.531 271.951 263.017C269.951 276.988 267.812 290.932 266.289 304.967C274.88 305.087 283.489 304.962 292.082 304.953C308.52 304.935 319.972 305.937 307.364 323.866L298.369 336.73C283.875 357.565 268.801 378.009 254.482 398.955C250.655 404.552 239.316 423.804 233.965 425.596C217.756 427.927 224.822 404.308 226.011 395.748C227.955 381.759 230.106 367.48 231.117 353.395ZM252.177 276.843C243.392 289.466 234.254 301.91 225.099 314.269L215.714 327.102C213.533 330.093 211.21 332.985 209.414 336.235L230.39 336.22C253.862 336.219 250.793 340.042 248.338 359.016C247.411 366.18 246.718 373.375 245.989 380.562C248.574 378.117 252.566 371.741 254.736 368.637L282.465 328.966C283.997 326.785 285.812 324.698 287.089 322.357C279.436 321.968 254.042 324.499 249.459 319.617C242.751 312.471 253.634 285.864 252.177 276.843Z"/>
</svg>
