<?xml version="1.0" encoding="utf-8" ?>
<svg xmlns="http://www.w3.org/2000/svg" xmlns:xlink="http://www.w3.org/1999/xlink" width="1024" height="1024">
	<path transform="scale(2 2)" d="M144.875 234.117L346.611 234.123C374.42 234.124 393.232 235.133 411.648 209.52C429.279 185 423.112 150.3 398.503 132.953C373.954 115.648 340.294 121.153 322.623 145.445C313.146 158.474 315.343 171.551 311.404 176.946C303.927 187.188 284.917 184.365 288.316 162.548C294.31 124.082 323.901 101.37 361.276 97.2304C407.513 94.5935 446.038 129.453 447.79 176.109C449.572 223.548 410.291 259.34 364.069 261.029C357.472 261.27 350.798 261.075 344.195 261.07L93.6184 261.076C86.474 261.072 73.8961 262.629 68.3237 257.25C60.8503 250.037 64.6926 236.679 75.0009 234.612C80.6956 233.47 92.1257 234.124 98.4637 234.126L144.875 234.117Z"/>
	<path transform="scale(2 2)" d="M178.067 202.488L138.222 202.475C132.984 202.48 123.919 203.019 119.073 202.346C103.488 200.183 104.47 178.937 119.83 177.009C123.181 176.8 126.66 176.995 130.022 177L167.212 176.988C170.998 176.979 174.943 176.813 178.702 177.297C194.427 179.318 193.228 200.565 178.067 202.488Z"/>
	<path transform="scale(2 2)" d="M302.218 376.136C299.215 370.791 296.177 363.8 295.635 357.61C294.729 347.246 305.964 341.128 314.882 345.767C321.258 349.084 321.717 356.205 324.582 361.987C334.33 381.657 360.522 384.098 374.432 367.831C386.939 353.205 381.529 330.61 365.649 320.904C355.193 314.512 342.004 316.657 330.247 316.657L102.729 316.658C94.7023 316.665 74.8184 318.814 68.6026 313.277C60.2332 305.822 64.5596 290.864 78.0021 290.212C81.7352 289.832 85.8936 290.193 89.6665 290.197L334.009 290.201C343.249 290.198 352.753 289.791 361.849 291.673C392.719 298.058 412.835 329.013 406.298 359.789C395.487 410.689 330.869 421.194 302.218 376.136Z"/>
</svg>
